<svg xmlns="http://www.w3.org/2000/svg" xmlns:xlink="http://www.w3.org/1999/xlink" width="500" zoomAndPan="magnify" viewBox="0 0 375 374.999991" height="500" preserveAspectRatio="xMidYMid meet" version="1.0"><defs><g/></defs><rect x="-37.5" width="450" fill="#ffffff" y="-37.499999" height="449.999989" fill-opacity="1"/><rect x="-37.5" width="450" fill="#fdfafa" y="-37.499999" height="449.999989" fill-opacity="1"/><g fill="#323131" fill-opacity="1"><g transform="translate(36.617426, 327.188248)"><g><path d="M 45.0625 -5.734375 C 40.21875 -8.785156 36.203125 -14.253906 33.015625 -22.140625 C 29.835938 -30.035156 27.296875 -39.457031 25.390625 -50.40625 C 23.484375 -61.351562 22.144531 -73.441406 21.375 -86.671875 C 20.613281 -99.910156 20.171875 -113.273438 20.046875 -126.765625 C 19.921875 -140.265625 20.046875 -153.566406 20.421875 -166.671875 C 20.804688 -179.785156 21.253906 -191.625 21.765625 -202.1875 C 22.273438 -212.75 22.71875 -221.722656 23.09375 -229.109375 C 23.476562 -236.492188 23.671875 -241.332031 23.671875 -243.625 C 22.910156 -241.332031 20.9375 -240.757812 17.75 -241.90625 C 14.570312 -243.050781 11.773438 -244.957031 9.359375 -247.625 C 6.941406 -250.300781 5.539062 -253.289062 5.15625 -256.59375 C 4.769531 -259.90625 7 -262.582031 11.84375 -264.625 C 17.945312 -267.164062 24.367188 -269.265625 31.109375 -270.921875 C 37.859375 -272.578125 44.796875 -274.039062 51.921875 -275.3125 C 59.054688 -276.582031 66.0625 -277.726562 72.9375 -278.75 C 79.8125 -279.769531 86.554688 -281.039062 93.171875 -282.5625 L 273.78125 -289.0625 C 277.601562 -291.09375 281.613281 -291.851562 285.8125 -291.34375 C 290.007812 -290.84375 293.507812 -289.570312 296.3125 -287.53125 C 299.113281 -285.5 300.894531 -282.765625 301.65625 -279.328125 C 302.425781 -275.890625 301.15625 -272.132812 297.84375 -268.0625 C 293.769531 -268.3125 287.210938 -268.5 278.171875 -268.625 C 269.140625 -268.757812 258.640625 -268.757812 246.671875 -268.625 C 234.710938 -268.5 221.601562 -268.304688 207.34375 -268.046875 C 193.09375 -267.796875 178.773438 -267.351562 164.390625 -266.71875 C 150.003906 -266.082031 136 -265.191406 122.375 -264.046875 C 108.757812 -262.898438 96.539062 -261.5625 85.71875 -260.03125 C 74.90625 -258.507812 65.867188 -256.601562 58.609375 -254.3125 C 51.359375 -252.019531 46.84375 -249.472656 45.0625 -246.671875 C 40.726562 -239.296875 37.988281 -229.941406 36.84375 -218.609375 C 35.695312 -207.285156 35.316406 -195.445312 35.703125 -183.09375 C 36.085938 -170.75 36.976562 -158.722656 38.375 -147.015625 C 39.769531 -135.304688 40.976562 -125.378906 42 -117.234375 C 45.820312 -116.722656 48.492188 -116.46875 50.015625 -116.46875 C 51.546875 -116.46875 52.753906 -116.65625 53.640625 -117.03125 C 54.535156 -117.414062 55.554688 -117.863281 56.703125 -118.375 C 57.847656 -118.882812 59.945312 -119.519531 63 -120.28125 C 64.53125 -120.539062 67.648438 -121.113281 72.359375 -122 C 77.066406 -122.894531 82.664062 -123.976562 89.15625 -125.25 C 95.65625 -126.519531 102.46875 -127.851562 109.59375 -129.25 C 116.71875 -130.65625 123.523438 -131.929688 130.015625 -133.078125 C 136.503906 -134.222656 142.164062 -135.300781 147 -136.3125 C 151.84375 -137.332031 155.03125 -137.972656 156.5625 -138.234375 C 165.726562 -140.015625 171.960938 -141.726562 175.265625 -143.375 C 178.578125 -145.03125 180.804688 -146.554688 181.953125 -147.953125 C 183.097656 -149.359375 184.050781 -150.757812 184.8125 -152.15625 C 185.582031 -153.5625 188.128906 -155.03125 192.453125 -156.5625 C 197.285156 -158.082031 200.335938 -157.378906 201.609375 -154.453125 C 202.890625 -151.523438 202.570312 -147.769531 200.65625 -143.1875 C 198.75 -138.613281 195.3125 -134.035156 190.34375 -129.453125 C 185.382812 -124.867188 179.085938 -121.8125 171.453125 -120.28125 C 167.378906 -119.519531 160.054688 -118.117188 149.484375 -116.078125 C 138.921875 -114.046875 127.722656 -111.882812 115.890625 -109.59375 C 104.054688 -107.300781 92.851562 -105.195312 82.28125 -103.28125 C 71.71875 -101.375 64.273438 -100.039062 59.953125 -99.28125 C 59.441406 -99.03125 58.296875 -98.519531 56.515625 -97.75 C 54.734375 -96.988281 52.882812 -96.097656 50.96875 -95.078125 C 49.0625 -94.054688 47.28125 -93.097656 45.625 -92.203125 C 43.976562 -91.316406 42.769531 -90.75 42 -90.5 C 41.75 -90.238281 41.175781 -89.726562 40.28125 -88.96875 C 39.394531 -88.207031 38.953125 -87.570312 38.953125 -87.0625 C 39.960938 -64.15625 43.140625 -47.351562 48.484375 -36.65625 C 53.835938 -25.96875 61.347656 -19.410156 71.015625 -16.984375 C 80.691406 -14.566406 92.847656 -15.203125 107.484375 -18.890625 C 122.128906 -22.585938 139.378906 -27.363281 159.234375 -33.21875 C 164.328125 -34.75 170.375 -36.210938 177.375 -37.609375 C 184.375 -39.015625 191.304688 -40.859375 198.171875 -43.140625 C 205.046875 -45.429688 211.472656 -48.164062 217.453125 -51.34375 C 223.441406 -54.53125 228.09375 -58.546875 231.40625 -63.390625 C 232.414062 -64.910156 232.664062 -66.179688 232.15625 -67.203125 C 231.65625 -68.222656 231.019531 -69.367188 230.25 -70.640625 C 229.488281 -71.910156 229.046875 -73.375 228.921875 -75.03125 C 228.796875 -76.6875 229.625 -78.785156 231.40625 -81.328125 C 243.113281 -78.273438 250.113281 -74.394531 252.40625 -69.6875 C 254.695312 -64.976562 253.675781 -59.945312 249.34375 -54.59375 C 245.019531 -49.25 237.894531 -43.710938 227.96875 -37.984375 C 218.039062 -32.265625 206.644531 -26.921875 193.78125 -21.953125 C 180.925781 -16.992188 167.242188 -12.601562 152.734375 -8.78125 C 138.222656 -4.96875 124.15625 -2.101562 110.53125 -0.1875 C 96.914062 1.71875 84.316406 2.285156 72.734375 1.515625 C 61.160156 0.753906 51.9375 -1.660156 45.0625 -5.734375 Z M 45.0625 -5.734375 "/></g></g></g></svg>